Coordinates
version=1
nRows=12
nColumns=19
inDegrees=yes

Units are S.I. units (second, meters, Newtons, ...)
If the header above contains a line with 'inDegrees', this indicates whether rotational values are in degrees (yes) or radians (no).

endheader
time	subtalar_angle_l	subtalar_angle_r	pelvis_list	pelvis_rotation	pelvis_tilt	pelvis_tx	pelvis_ty	pelvis_tz	hip_flexion_l	hip_adduction_l	hip_rotation_l	hip_flexion_r	hip_adduction_r	hip_rotation_r	knee_flexion_l	knee_flexion_r	ankle_angle_l	ankle_angle_r
      0.00000000	     17.93859421	     19.02314784	     89.75579442	      0.26319884	     -9.79510750	     -2.04785656	     -0.85673405	      0.89041573	     23.53413510	     -1.01603959	     -2.11227307	     12.61172135	      9.28398052	      8.20571828	    -55.25893360	     -7.77047190	      5.32979476	      6.03387393
      0.01000000	     16.63521418	     19.45019172	     90.08637488	     -0.37625808	    -10.03428888	     -2.03558871	     -0.85647201	      0.89206441	     24.95474457	     -1.36651470	     -1.41941701	     11.40259090	      8.85546451	      8.76776385	    -53.45362152	     -6.60984441	      6.55153540	      5.74395228
      0.02000000	     15.46975849	     19.72562389	     90.39824587	     -1.01956231	    -10.15766091	     -2.02329640	     -0.85620408	      0.89345779	     26.13002538	     -1.68736425	     -0.77263329	     10.08160084	      8.41693810	      9.33057783	    -51.45949301	     -5.44849427	      7.40791197	      5.55376485
      0.03000000	     14.99133157	     19.97289244	     90.66976478	     -1.70790217	    -10.26881745	     -2.01107751	     -0.85594384	      0.89460159	     27.19854000	     -1.92669421	     -0.10594241	      8.78690126	      8.00010467	      9.98021610	    -49.30729956	     -4.34851377	      7.83774251	      5.50648228
      0.04000000	     13.44072914	     20.19198723	     90.93591791	     -2.32965559	    -10.26949606	     -1.99888350	     -0.85569193	      0.89546099	     28.03697514	     -2.20760297	      0.34655617	      7.45328397	      7.55983743	     10.38190193	    -46.97759966	     -3.33439274	      8.87806122	      5.17853371
      0.05000000	     12.80558754	     20.39803083	     91.14709321	     -2.96522771	    -10.17122825	     -1.98672886	     -0.85550709	      0.89602118	     28.69010949	     -2.38733491	      0.79843178	      6.05958918	      7.16728404	     10.82909350	    -44.49231997	     -2.40000529	      9.36963767	      5.05153381
      0.06000000	     12.22763160	     20.58317683	     91.31627143	     -3.62674054	    -10.13801864	     -1.97470480	     -0.85535413	      0.89636071	     29.32807657	     -2.50261950	      1.20253979	      4.81774706	      6.80774699	     11.30189291	    -41.83909921	     -1.60663836	      9.79769532	      4.90032227
      0.07000000	     12.06574838	     20.76896267	     91.43343256	     -4.29336206	    -10.14340590	     -1.96277521	     -0.85526577	      0.89647429	     29.92185960	     -2.53917208	      1.56372062	      3.68467926	      6.49552313	     11.80103896	    -39.01482669	     -0.93748832	      9.97293262	      4.87107715
      0.08000000	     11.94495965	     20.92327163	     91.51501609	     -4.94076752	    -10.11829154	     -1.95087810	     -0.85524771	      0.89634603	     30.38138009	     -2.53160668	      1.84248839	      2.58541973	      6.21390565	     12.23634031	    -36.00389393	     -0.38192513	     10.14312239	      4.80045528
      0.09000000	     11.93818635	     21.05812995	     91.55460194	     -5.58592078	    -10.11559304	     -1.93901466	     -0.85529141	      0.89600077	     30.75731612	     -2.46780310	      2.06650037	      1.57075352	      5.96957907	     12.65802131	    -32.80821261	      0.05837333	     10.23581087	      4.72240055
      0.10000000	     12.07895485	     21.18505229	     91.55419170	     -6.22672386	    -10.11882762	     -1.92713900	     -0.85540098	      0.89543195	     31.02376650	     -2.35177050	      2.24565067	      0.60384274	      5.75896088	     13.08919042	    -29.43503468	      0.41013414	     10.23265909	      4.65143833
      0.11000000	     12.74712049	     21.25543261	     91.50218953	     -6.87218219	    -10.08228226	     -1.91518937	     -0.85558282	      0.89460822	     31.13950566	     -2.15827314	      2.45186601	     -0.36697032	      5.59249305	     13.51442669	    -25.92189266	      0.67118620	      9.96152674	      4.46013093
